<svg width="1280" height="640" viewBox="0 0 1280 640" fill="none" xmlns="http://www.w3.org/2000/svg">
<g clip-path="url(#clip0_7_3)">
<rect width="1280" height="640" fill="#3D3846"/>
<path d="M881.358 769.251L668.333 490.464L955.927 494.497L1173.09 804.645L881.358 769.251Z" fill="#E01B24" fill-opacity="0.5" stroke="white" stroke-width="0.307438"/>
<path d="M1173.19 804.659L1379.43 489.103L1202.27 185.206L956.063 494.57L1173.23 804.715L1173.19 804.659Z" fill="#33D17A" fill-opacity="0.5" stroke="white" stroke-width="0.307438"/>
<path d="M668.335 490.466L955.927 494.497L1202.14 185.137L903.394 212.36L668.335 490.466Z" fill="#3584E4" fill-opacity="0.5" stroke="white" stroke-width="0.307438"/>
<path d="M1098.77 493.359L903.403 214.349M1098.77 493.359L879.003 763.664M1098.77 493.359L1380.12 487.62" stroke="white" stroke-width="0.307438"/>
<path opacity="0.4" d="M0 264.827L375.173 264.827L375.173 640L0 264.827Z" fill="white"/>
<path opacity="0.2" d="M640 0L375.172 0L375.172 264.827L640 0Z" fill="white"/>
<path opacity="0.1" d="M375.172 264.827L573.793 264.827V463.448L375.172 264.827Z" fill="white"/>
<path d="M1109.37 562.814C1111.46 575.182 1079.83 579.699 1091.74 588.752C1095.48 591.596 1099.3 589.417 1098.72 585.006C1098.24 581.325 1111.68 579.097 1110.63 584.659C1109.25 591.953 1101.88 597.711 1095.5 597.711C1082.52 597.711 1070.07 582.637 1072.51 571.772C1076.1 555.709 1107.64 552.548 1109.37 562.814ZM1133.52 557.608C1134.94 557.608 1136.3 557.765 1137.6 558.081C1138.9 558.396 1140.14 558.863 1141.29 559.482L1139.81 563.861C1139.16 563.506 1138.42 563.156 1137.73 562.91C1136.55 562.516 1135.37 562.319 1134.19 562.319C1131.99 562.319 1130.3 563.045 1129.11 564.497C1127.92 565.938 1127.33 568.004 1127.33 570.694C1127.33 573.362 1127.9 575.422 1129.05 576.874C1130.2 578.326 1131.92 579.052 1133.93 579.052C1135.98 579.052 1137.25 578.537 1137.92 577.994V573.632H1133.49V569.275H1142.08V581.399C1139.35 583.685 1135.36 583.761 1133.46 583.763H1133.22C1129.66 583.763 1126.84 582.593 1124.75 580.251C1122.67 577.898 1121.63 574.713 1121.63 570.694C1121.63 566.63 1122.69 563.433 1124.81 561.103C1126.93 558.773 1129.83 557.608 1133.52 557.608ZM1179.05 557.61C1182.48 557.61 1185.18 558.769 1187.12 561.087C1189.07 563.406 1190.04 566.61 1190.04 570.697C1190.04 574.772 1189.07 577.967 1187.12 580.286C1185.18 582.605 1182.48 583.763 1179.05 583.763C1175.62 583.763 1172.93 582.605 1170.98 580.286C1169.03 577.967 1168.05 574.772 1168.05 570.697C1168.05 566.61 1169.03 563.406 1170.98 561.087C1172.86 558.859 1175.41 557.697 1178.65 557.61C1178.78 557.607 1178.91 557.61 1179.05 557.61ZM1200.68 558.064L1205.54 573.802L1210.44 558.064H1216.37L1219.05 583.274H1213.84L1212.23 567.51L1207.3 583.349H1203.81L1198.89 566.975L1197.28 583.274H1192.05L1194.73 558.064H1200.68ZM1149.32 558.064L1160.31 573.215V558.064H1165V583.274H1161.52L1150.54 568.123V583.274H1145.85V558.064H1149.32ZM1237.68 558.064V562.978H1228.32V568.207H1235.52V572.585H1228.32V578.36H1238V583.274H1222.81V558.064H1237.68ZM1178.97 562.317L1178.89 562.318C1177.29 562.362 1176.04 563.094 1175.14 564.511C1174.22 565.975 1173.75 568.04 1173.75 570.697C1173.75 573.342 1174.22 575.392 1175.14 576.855C1176.07 578.319 1177.37 579.056 1179.05 579.056C1180.74 579.056 1182.04 578.319 1182.97 576.855C1183.9 575.392 1184.36 573.342 1184.36 570.697C1184.36 568.04 1183.9 565.975 1182.97 564.511C1182.05 563.048 1180.74 562.318 1179.05 562.318L1178.97 562.317ZM1073.98 561.284C1071.24 562.488 1065.02 554.728 1069.68 551.517C1074.34 548.306 1076.72 560.081 1073.98 561.284ZM1081.7 555.121C1078.44 555.785 1073.51 545.894 1079.32 543.498C1085.14 541.103 1084.96 554.457 1081.7 555.121ZM1112.98 536C1125.84 536 1112.17 554.285 1104.94 554.285C1097.71 554.285 1100.12 536 1112.98 536ZM1091.63 552.02C1087.78 551.784 1085.23 539.22 1092.47 538.282C1099.71 537.345 1095.48 552.254 1091.63 552.02Z" fill="white"/>
<g filter="url(#filter0_d_7_3)">
<path fill-rule="evenodd" clip-rule="evenodd" d="M336.535 319.648C336.06 323.415 334.721 327.02 332.622 330.183C330.524 333.346 327.723 335.982 324.437 337.883L225.937 394.752C209.52 404.228 189.002 392.381 189 373.425V379.581C189.002 398.536 209.52 410.384 225.937 400.909L324.437 344.039C328.628 341.613 332.011 338.006 334.163 333.668C336.315 329.329 337.139 324.453 336.535 319.648Z" fill="url(#paint0_linear_7_3)"/>
<path d="M214.158 237.006C217.948 237.095 221.654 238.135 224.938 240.029L323.438 296.897C326.876 298.884 329.732 301.741 331.717 305.18C333.702 308.619 334.747 312.52 334.747 316.491C334.747 320.463 333.702 324.365 331.717 327.804C329.732 331.243 326.876 334.098 323.438 336.085L274.207 364.507C274.206 364.507 274.205 364.508 274.204 364.509C274.186 364.518 274.16 364.532 274.129 364.55L274.123 364.554L224.938 392.955C221.498 394.94 217.596 395.986 213.625 395.985C209.654 395.985 205.754 394.938 202.314 392.952C198.875 390.966 196.018 388.112 194.032 384.673C192.17 381.449 191.135 377.817 191.013 374.104L191 373.359V259.623L191.007 259.059C191.078 256.235 191.677 253.448 192.774 250.843C193.945 248.064 195.66 245.547 197.817 243.44C199.975 241.334 202.532 239.678 205.338 238.573C208.144 237.468 211.144 236.935 214.158 237.006Z" fill="url(#paint1_linear_7_3)" stroke="#DEDDDA" stroke-width="4"/>
<path d="M204.391 271.937C204.391 265.987 209.214 261.164 215.164 261.164C221.114 261.164 225.938 265.987 225.938 271.937V370.437C225.938 376.387 221.114 381.211 215.164 381.211C209.214 381.211 204.391 376.387 204.391 370.437V271.937Z" fill="url(#paint2_linear_7_3)"/>
<path d="M238.25 319.648C238.25 313.698 243.073 308.875 249.023 308.875C254.973 308.875 259.797 313.698 259.797 319.648V358.125C259.797 364.075 254.973 368.898 249.023 368.898C243.073 368.898 238.25 364.075 238.25 358.125V319.648Z" fill="url(#paint3_linear_7_3)"/>
<path d="M272.109 304.258C272.109 298.308 276.933 293.484 282.883 293.484C288.833 293.484 293.656 298.308 293.656 304.258V336.578C293.656 342.528 288.833 347.351 282.883 347.351C276.933 347.351 272.109 342.528 272.109 336.578V304.258Z" fill="url(#paint4_linear_7_3)"/>
</g>
<g filter="url(#filter1_d_7_3)">
<path d="M380.733 370.227V275.646H420.216L428.722 305.227C429.441 307.766 430.287 310.876 431.261 314.558C432.234 318.197 433.229 322.027 434.244 326.047C435.302 330.067 436.254 333.918 437.101 337.6C437.989 341.239 438.709 344.328 439.259 346.867H432.467C433.017 344.328 433.715 341.239 434.562 337.6C435.45 333.918 436.402 330.067 437.418 326.047C438.434 322.027 439.407 318.197 440.338 314.558C441.311 310.876 442.158 307.766 442.877 305.227L451.256 275.646H490.802V370.227H464.903V333.664C464.903 331.506 464.946 328.713 465.03 325.285C465.157 321.857 465.284 318.112 465.411 314.05C465.538 309.987 465.644 305.882 465.729 301.735C465.855 297.546 465.919 293.631 465.919 289.992H468.902C468.014 293.631 467.04 297.525 465.982 301.672C464.924 305.777 463.867 309.86 462.809 313.923C461.793 317.943 460.82 321.667 459.889 325.095C458.958 328.522 458.154 331.379 457.477 333.664L446.495 370.227H425.167L413.995 333.664C413.318 331.379 412.493 328.522 411.52 325.095C410.546 321.667 409.531 317.943 408.473 313.923C407.415 309.86 406.336 305.777 405.235 301.672C404.177 297.525 403.183 293.631 402.252 289.992H405.616C405.616 293.631 405.659 297.546 405.743 301.735C405.87 305.882 405.997 309.987 406.124 314.05C406.251 318.112 406.357 321.857 406.441 325.285C406.568 328.713 406.632 331.506 406.632 333.664V370.227H380.733ZM534.41 371.75C527.47 371.75 521.313 370.269 515.938 367.307C510.564 364.302 506.354 360.155 503.307 354.865C500.302 349.575 498.8 343.524 498.8 336.711C498.8 329.855 500.302 323.804 503.307 318.557C506.311 313.267 510.437 309.141 515.685 306.179C520.974 303.174 527.047 301.672 533.902 301.672C539.065 301.672 543.784 302.518 548.058 304.211C552.332 305.861 556.035 308.231 559.166 311.32C562.298 314.367 564.71 317.985 566.402 322.175C568.137 326.364 569.005 330.977 569.005 336.013V342.805H506.29V328.586H557.452L545.772 331.061C545.772 328.692 545.328 326.682 544.439 325.031C543.551 323.338 542.281 322.048 540.631 321.159C538.98 320.27 536.97 319.826 534.601 319.826C532.273 319.826 530.263 320.27 528.57 321.159C526.92 322.048 525.65 323.338 524.762 325.031C523.873 326.682 523.429 328.692 523.429 331.061V342.297C523.429 344.751 523.894 346.867 524.825 348.644C525.799 350.422 527.174 351.776 528.951 352.707C530.771 353.638 532.929 354.103 535.426 354.103C537.245 354.103 538.875 353.871 540.313 353.405C541.795 352.94 543.043 352.284 544.059 351.437C545.074 350.549 545.815 349.512 546.28 348.327H568.751C567.947 352.897 565.937 356.939 562.721 360.451C559.505 363.963 555.442 366.735 550.533 368.767C545.667 370.755 540.292 371.75 534.41 371.75ZM603.536 371.75C597.696 371.75 592.597 370.311 588.238 367.434C583.922 364.514 580.558 360.43 578.146 355.183C575.776 349.893 574.591 343.693 574.591 336.584C574.591 329.728 575.818 323.677 578.272 318.43C580.727 313.182 584.112 309.077 588.429 306.115C592.745 303.153 597.696 301.672 603.282 301.672C606.202 301.672 608.805 302.053 611.09 302.814C613.375 303.534 615.406 304.655 617.184 306.179C619.003 307.66 620.611 309.585 622.008 311.955H622.071V275.646H647.462V370.227H622.325V359.816H622.262C621.246 362.44 619.828 364.641 618.009 366.418C616.231 368.195 614.116 369.528 611.661 370.417C609.207 371.306 606.498 371.75 603.536 371.75ZM611.09 351.818C613.417 351.818 615.47 351.205 617.247 349.977C619.024 348.708 620.421 346.931 621.437 344.645C622.452 342.36 622.96 339.673 622.96 336.584C622.96 333.495 622.452 330.829 621.437 328.586C620.421 326.343 619.024 324.608 617.247 323.381C615.47 322.111 613.417 321.477 611.09 321.477C608.805 321.477 606.837 322.111 605.187 323.381C603.578 324.608 602.351 326.343 601.505 328.586C600.659 330.829 600.235 333.495 600.235 336.584C600.235 339.673 600.659 342.36 601.505 344.645C602.351 346.931 603.578 348.708 605.187 349.977C606.837 351.205 608.805 351.818 611.09 351.818ZM658.38 370.227V303.195H683.771V370.227H658.38ZM671.012 298.752C667.034 298.752 663.775 297.609 661.236 295.324C658.74 293.039 657.491 290.098 657.491 286.501C657.491 282.946 658.74 280.047 661.236 277.805C663.775 275.519 667.034 274.377 671.012 274.377C674.99 274.377 678.227 275.519 680.724 277.805C683.263 280.047 684.532 282.967 684.532 286.564C684.532 290.119 683.263 293.039 680.724 295.324C678.227 297.609 674.99 298.752 671.012 298.752ZM715.255 371.433C710.769 371.433 706.812 370.713 703.385 369.274C699.957 367.836 697.27 365.656 695.323 362.736C693.377 359.816 692.403 356.135 692.403 351.691C692.403 347.925 693.059 344.751 694.371 342.17C695.683 339.546 697.503 337.409 699.83 335.759C702.2 334.066 704.951 332.796 708.082 331.95C711.214 331.061 714.578 330.49 718.175 330.236C722.11 329.982 725.263 329.644 727.633 329.221C730.045 328.755 731.78 328.142 732.838 327.38C733.896 326.618 734.425 325.624 734.425 324.396V324.143C734.425 323.169 734.107 322.323 733.473 321.603C732.838 320.884 731.949 320.334 730.807 319.953C729.706 319.53 728.373 319.318 726.808 319.318C725.157 319.318 723.718 319.551 722.491 320.017C721.306 320.482 720.375 321.18 719.698 322.111C719.021 323 718.598 324.1 718.429 325.412H695.196C695.577 320.334 697.037 316.039 699.576 312.526C702.115 308.972 705.733 306.284 710.431 304.465C715.17 302.603 720.968 301.672 727.823 301.672C732.986 301.672 737.535 302.201 741.471 303.259C745.449 304.274 748.771 305.798 751.437 307.829C754.145 309.86 756.176 312.357 757.53 315.319C758.884 318.239 759.562 321.603 759.562 325.412V370.227H734.806V360.832H734.552C733.071 363.498 731.378 365.614 729.474 367.18C727.569 368.703 725.432 369.782 723.062 370.417C720.735 371.094 718.132 371.433 715.255 371.433ZM723.507 355.627C725.326 355.627 727.083 355.288 728.775 354.611C730.51 353.892 731.928 352.855 733.028 351.501C734.129 350.147 734.679 348.475 734.679 346.486V341.154C734.044 341.366 733.367 341.577 732.647 341.789C731.97 342.001 731.23 342.212 730.426 342.424C729.622 342.593 728.733 342.783 727.76 342.995C726.786 343.164 725.707 343.355 724.522 343.566C722.787 343.863 721.285 344.307 720.016 344.899C718.788 345.492 717.836 346.232 717.159 347.121C716.482 348.01 716.144 349.025 716.144 350.168C716.144 351.31 716.461 352.305 717.096 353.151C717.73 353.955 718.598 354.569 719.698 354.992C720.799 355.415 722.068 355.627 723.507 355.627ZM809.708 371.75C800.991 371.75 793.606 370.48 787.555 367.941C781.503 365.402 776.912 361.678 773.78 356.769C770.649 351.818 769.083 345.809 769.083 338.742H794.029C794.156 341.281 794.876 343.461 796.188 345.28C797.542 347.1 799.382 348.496 801.71 349.47C804.08 350.443 806.852 350.93 810.025 350.93C812.818 350.93 815.252 350.591 817.325 349.914C819.399 349.195 821.007 348.221 822.149 346.994C823.334 345.725 823.927 344.265 823.927 342.614C823.927 341.091 823.377 339.758 822.276 338.615C821.176 337.473 819.483 336.478 817.198 335.632C814.913 334.785 811.993 334.024 808.438 333.347L799.044 331.569C789.903 329.834 782.921 326.618 778.097 321.921C773.272 317.224 770.86 311.363 770.86 304.338C770.86 298.329 772.49 293.06 775.748 288.532C779.007 284.004 783.535 280.471 789.332 277.932C795.13 275.393 801.858 274.123 809.518 274.123C817.389 274.123 824.16 275.371 829.83 277.868C835.501 280.365 839.902 283.962 843.033 288.659C846.165 293.356 847.836 299.006 848.048 305.607H823.8C823.504 302.307 822.107 299.704 819.61 297.8C817.156 295.895 813.961 294.943 810.025 294.943C807.571 294.943 805.392 295.303 803.487 296.022C801.583 296.699 800.081 297.652 798.98 298.879C797.923 300.064 797.394 301.46 797.394 303.068C797.394 304.592 797.88 305.882 798.854 306.94C799.827 307.998 801.35 308.929 803.424 309.733C805.54 310.495 808.227 311.172 811.485 311.765L819.103 313.161C824.519 314.177 829.174 315.467 833.067 317.033C837.003 318.599 840.219 320.503 842.716 322.746C845.213 324.989 847.053 327.591 848.238 330.554C849.423 333.516 850.016 336.88 850.016 340.646C850.016 347.248 848.429 352.876 845.255 357.531C842.123 362.144 837.553 365.677 831.544 368.132C825.535 370.544 818.256 371.75 809.708 371.75ZM884.991 334.68V370.227H859.601V275.646H884.991V321.667H881.373C883.447 315.827 886.451 311.045 890.387 307.321C894.322 303.555 899.675 301.672 906.446 301.672C911.44 301.672 915.608 302.751 918.951 304.909C922.294 307.025 924.812 310.051 926.505 313.986C928.198 317.922 929.044 322.577 929.044 327.951V370.227H903.653V333.664C903.653 330.279 902.849 327.676 901.241 325.856C899.633 324.037 897.327 323.127 894.322 323.127C892.333 323.127 890.641 323.55 889.244 324.396C887.848 325.243 886.79 326.533 886.07 328.268C885.351 329.961 884.991 332.098 884.991 334.68ZM973.033 371.75C966.093 371.75 959.936 370.269 954.562 367.307C949.187 364.302 944.977 360.155 941.93 354.865C938.925 349.575 937.423 343.524 937.423 336.711C937.423 329.855 938.925 323.804 941.93 318.557C944.934 313.267 949.06 309.141 954.308 306.179C959.597 303.174 965.67 301.672 972.525 301.672C977.688 301.672 982.407 302.518 986.681 304.211C990.955 305.861 994.658 308.231 997.789 311.32C1000.92 314.367 1003.33 317.985 1005.03 322.175C1006.76 326.364 1007.63 330.977 1007.63 336.013V342.805H944.913V328.586H996.075L984.396 331.061C984.396 328.692 983.951 326.682 983.062 325.031C982.174 323.338 980.904 322.048 979.254 321.159C977.604 320.27 975.593 319.826 973.224 319.826C970.896 319.826 968.886 320.27 967.193 321.159C965.543 322.048 964.273 323.338 963.385 325.031C962.496 326.682 962.052 328.692 962.052 331.061V342.297C962.052 344.751 962.517 346.867 963.448 348.644C964.422 350.422 965.797 351.776 967.574 352.707C969.394 353.638 971.552 354.103 974.049 354.103C975.868 354.103 977.498 353.871 978.937 353.405C980.418 352.94 981.666 352.284 982.682 351.437C983.697 350.549 984.438 349.512 984.903 348.327H1007.37C1006.57 352.897 1004.56 356.939 1001.34 360.451C998.128 363.963 994.065 366.735 989.156 368.767C984.29 370.755 978.915 371.75 973.033 371.75ZM1041.27 370.227C1032.38 370.227 1025.91 368.618 1021.85 365.402C1017.78 362.144 1015.75 356.854 1015.75 349.533V275.646H1041.14V347.121C1041.14 348.56 1041.55 349.66 1042.35 350.422C1043.15 351.184 1044.32 351.564 1045.84 351.564C1046.31 351.564 1046.77 351.564 1047.24 351.564C1047.75 351.564 1048.21 351.564 1048.63 351.564V370.227C1047.41 370.227 1046.18 370.227 1044.95 370.227C1043.72 370.227 1042.5 370.227 1041.27 370.227ZM1081.51 370.227C1072.63 370.227 1066.15 368.618 1062.09 365.402C1058.03 362.144 1056 356.854 1056 349.533V275.646H1081.39V347.121C1081.39 348.56 1081.79 349.66 1082.59 350.422C1083.4 351.184 1084.56 351.564 1086.08 351.564C1086.55 351.564 1087.02 351.564 1087.48 351.564C1087.99 351.564 1088.45 351.564 1088.88 351.564V370.227C1087.65 370.227 1086.42 370.227 1085.2 370.227C1083.97 370.227 1082.74 370.227 1081.51 370.227Z" fill="white"/>
</g>
</g>
<defs>
<filter id="filter0_d_7_3" x="177" y="229" width="171.747" height="193.243" filterUnits="userSpaceOnUse" color-interpolation-filters="sRGB">
<feFlood flood-opacity="0" result="BackgroundImageFix"/>
<feColorMatrix in="SourceAlpha" type="matrix" values="0 0 0 0 0 0 0 0 0 0 0 0 0 0 0 0 0 0 127 0" result="hardAlpha"/>
<feOffset dy="6"/>
<feGaussianBlur stdDeviation="6"/>
<feComposite in2="hardAlpha" operator="out"/>
<feColorMatrix type="matrix" values="0 0 0 0 0 0 0 0 0 0 0 0 0 0 0 0 0 0 0.25 0"/>
<feBlend mode="normal" in2="BackgroundImageFix" result="effect1_dropShadow_7_3"/>
<feBlend mode="normal" in="SourceGraphic" in2="effect1_dropShadow_7_3" result="shape"/>
</filter>
<filter id="filter1_d_7_3" x="368.733" y="268.123" width="732.145" height="121.627" filterUnits="userSpaceOnUse" color-interpolation-filters="sRGB">
<feFlood flood-opacity="0" result="BackgroundImageFix"/>
<feColorMatrix in="SourceAlpha" type="matrix" values="0 0 0 0 0 0 0 0 0 0 0 0 0 0 0 0 0 0 127 0" result="hardAlpha"/>
<feOffset dy="6"/>
<feGaussianBlur stdDeviation="6"/>
<feComposite in2="hardAlpha" operator="out"/>
<feColorMatrix type="matrix" values="0 0 0 0 0 0 0 0 0 0 0 0 0 0 0 0 0 0 0.25 0"/>
<feBlend mode="normal" in2="BackgroundImageFix" result="effect1_dropShadow_7_3"/>
<feBlend mode="normal" in="SourceGraphic" in2="effect1_dropShadow_7_3" result="shape"/>
</filter>
<linearGradient id="paint0_linear_7_3" x1="336.75" y1="351.969" x2="189" y2="383.519" gradientUnits="userSpaceOnUse">
<stop stop-color="#77767B"/>
<stop offset="0.120192" stop-color="#9A9996"/>
<stop offset="0.807692" stop-color="#9A9996"/>
<stop offset="0.923077" stop-color="#BFBEBB"/>
<stop offset="1" stop-color="#77767B"/>
</linearGradient>
<linearGradient id="paint1_linear_7_3" x1="262.875" y1="266.551" x2="262.875" y2="365.82" gradientUnits="userSpaceOnUse">
<stop stop-color="#241F31"/>
<stop offset="1" stop-color="#3D3846"/>
</linearGradient>
<linearGradient id="paint2_linear_7_3" x1="215.164" y1="261.164" x2="215.164" y2="381.211" gradientUnits="userSpaceOnUse">
<stop stop-color="#99C1F1"/>
<stop offset="0.2" stop-color="#3584E4" stop-opacity="0.85"/>
<stop offset="1" stop-color="#3D3846" stop-opacity="0"/>
</linearGradient>
<linearGradient id="paint3_linear_7_3" x1="249.023" y1="308.875" x2="249.023" y2="368.898" gradientUnits="userSpaceOnUse">
<stop stop-color="#8FF0A4" stop-opacity="0.846154"/>
<stop offset="0.196179" stop-color="#33D17A"/>
<stop offset="1" stop-color="#3D3846" stop-opacity="0"/>
</linearGradient>
<linearGradient id="paint4_linear_7_3" x1="282.883" y1="293.484" x2="282.883" y2="347.352" gradientUnits="userSpaceOnUse">
<stop stop-color="#FFBE6F"/>
<stop offset="0.246216" stop-color="#E66100" stop-opacity="0.85"/>
<stop offset="1" stop-color="#383341" stop-opacity="0"/>
</linearGradient>
<clipPath id="clip0_7_3">
<rect width="1280" height="640" fill="white"/>
</clipPath>
</defs>
</svg>
